<?xml version="1.0" encoding="UTF-8" standalone="no"?>
<svg
   xmlns:dc="http://purl.org/dc/elements/1.1/"
   xmlns:cc="http://creativecommons.org/ns#"
   xmlns:rdf="http://www.w3.org/1999/02/22-rdf-syntax-ns#"
   xmlns:svg="http://www.w3.org/2000/svg"
   xmlns="http://www.w3.org/2000/svg"
   xmlns:sodipodi="http://sodipodi.sourceforge.net/DTD/sodipodi-0.dtd"
   xmlns:inkscape="http://www.inkscape.org/namespaces/inkscape"
   width="41.847641mm"
   height="27.791012mm"
   viewBox="0 0 41.847641 27.791012"
   version="1.1"
   id="svg8"
   inkscape:version="1.0.2 (e86c870879, 2021-01-15)"
   sodipodi:docname="insig-logo.svg">
  <defs
     id="defs2" />
  <sodipodi:namedview
     id="base"
     pagecolor="#ffffff"
     bordercolor="#666666"
     borderopacity="1.0"
     inkscape:pageopacity="0.0"
     inkscape:pageshadow="2"
     inkscape:zoom="0.98994949"
     inkscape:cx="215.42377"
     inkscape:cy="677.57099"
     inkscape:document-units="mm"
     inkscape:current-layer="layer1"
     inkscape:document-rotation="0"
     showgrid="false"
     fit-margin-top="0"
     fit-margin-left="0"
     fit-margin-right="0"
     fit-margin-bottom="0"
     inkscape:window-width="1877"
     inkscape:window-height="2089"
     inkscape:window-x="85"
     inkscape:window-y="34"
     inkscape:window-maximized="0" />
  <metadata
     id="metadata5">
    <rdf:RDF>
      <cc:Work
         rdf:about="">
        <dc:format>image/svg+xml</dc:format>
        <dc:type
           rdf:resource="http://purl.org/dc/dcmitype/StillImage" />
        <dc:title></dc:title>
      </cc:Work>
    </rdf:RDF>
  </metadata>
  <g
     inkscape:label="Layer 1"
     inkscape:groupmode="layer"
     id="layer1"
     transform="translate(-15.362851,-11.213739)">
    <g
       id="g945"
       transform="translate(-19.818269,-28.852152)">
      <path
         style="fill:#301dc0;fill-opacity:1;stroke-width:1"
         d="m 39.261994,45.89553 c 0.256552,-0.100142 0.439568,-0.122923 0.655117,-0.08158 1.119109,0.214676 5.423302,0.449283 5.736568,0.312648 0.12763,-0.05567 -0.0068,-0.381703 -0.189234,-0.458815 -0.08817,-0.03727 -0.236864,-0.100186 -0.330453,-0.139807 -0.139011,-0.05887 -0.178746,-0.119371 -0.217046,-0.330579 -0.04765,-0.262744 0.04012,-0.541469 0.101369,-0.321922 0.01647,0.05905 0.08699,0.177079 0.156702,0.262332 0.184683,0.225819 0.27669,0.126592 0.347743,-0.375061 0.118953,-0.839826 0.45532,-1.34417 1.1454,-1.717387 0.401656,-0.217226 1.661782,-0.705196 1.917302,-0.742448 l 0.214906,-0.03133 -0.175855,0.253767 c -0.107481,0.155106 -0.164346,0.29502 -0.146252,0.35987 0.03373,0.120919 0.146519,0.09811 0.953957,-0.192887 0.268136,-0.09663 0.478794,-0.145846 0.468133,-0.109353 -0.01067,0.03654 -0.251714,0.220535 -0.535671,0.40897 -0.494607,0.328243 -0.533882,0.367899 -0.935332,0.944494 -0.399197,0.573218 -0.422303,0.622581 -0.487674,1.037613 -0.07789,0.494544 -0.04826,0.969693 0.06247,1.002046 0.04644,0.01353 0.06866,-0.142216 0.05886,-0.412776 -0.01724,-0.476112 0.178726,-1.308946 0.372984,-1.585111 0.320377,-0.455467 1.103263,-1.022238 2.058906,-1.490565 0.589514,-0.288908 0.748976,-0.308619 0.585263,-0.07238 -0.0761,0.10982 -0.105009,0.411456 -0.05243,0.547162 0.07828,0.202054 0.311298,-0.07202 0.403641,-0.47476 0.05523,-0.240883 0.07161,-0.262794 0.263306,-0.352143 0.277149,-0.129195 0.370822,-0.08727 0.308338,0.138017 -0.05305,0.191247 0.01441,0.371912 0.12934,0.346391 0.03498,-0.0078 0.207618,-0.201616 0.383632,-0.430763 0.315998,-0.411379 0.698766,-0.688016 0.797339,-0.576245 0.02162,0.02452 -0.06305,0.216793 -0.188145,0.42728 -0.219634,0.369572 -0.284691,0.636332 -0.189301,0.776246 0.05606,0.08221 0.06538,0.07774 0.423128,-0.203033 0.158758,-0.124597 0.422771,-0.259509 0.586695,-0.299802 l 0.298036,-0.07326 -0.313585,0.456976 c -0.363705,0.530039 -0.515809,0.940868 -0.506854,1.369063 0.0072,0.345355 0.15631,0.851051 0.183981,0.624079 0.0087,-0.07102 0.111605,-0.41403 0.228768,-0.762237 0.172837,-0.513666 0.294289,-0.760165 0.643769,-1.306597 0.372156,-0.581898 0.463304,-0.693187 0.670117,-0.818242 0.131657,-0.07962 0.261105,-0.129691 0.287653,-0.111299 0.02657,0.01839 -0.0034,0.139803 -0.06671,0.269781 -0.195622,0.402105 -0.356454,1.018438 -0.31927,1.22349 0.08643,0.476585 0.396232,0.174802 0.754929,-0.735393 0.120408,-0.305539 0.269591,-0.590224 0.356634,-0.680546 0.18029,-0.187098 0.877862,-0.60198 0.939886,-0.558996 0.06429,0.04457 0.09868,0.367436 0.06492,0.609614 -0.01606,0.115367 -0.0983,0.342796 -0.182708,0.505394 -0.176597,0.340169 -0.227795,0.611818 -0.172369,0.914564 0.031,0.169343 0.04272,0.185069 0.05727,0.07686 0.01007,-0.07483 0.09738,-0.281984 0.194065,-0.460362 0.249481,-0.460289 0.405316,-0.859737 0.461165,-1.182068 0.06084,-0.351136 0.204035,-0.476074 0.394421,-0.344134 0.111343,0.07716 0.17941,0.06982 0.356192,-0.03844 0.120203,-0.07358 0.290684,-0.237871 0.378846,-0.365095 0.08816,-0.12723 0.189871,-0.22977 0.226019,-0.227873 0.03615,0.0019 0.08658,0.11853 0.112092,0.259179 0.0255,0.140654 0.07072,0.272598 0.100472,0.293214 0.08583,0.05949 0.192873,-0.143481 0.23322,-0.442203 0.0537,-0.397604 0.393838,-0.68931 0.472979,-0.405637 0.02477,0.08866 0.05911,0.09247 0.18066,0.02005 0.191579,-0.114121 0.277006,-0.05419 0.237205,0.166437 -0.038,0.210764 0.02764,0.206769 0.283599,-0.01732 0.256522,-0.224578 0.364449,-0.185453 0.240329,0.08714 -0.05401,0.118568 -0.108292,0.292207 -0.12069,0.385857 -0.01951,0.14769 0.02545,0.09865 0.339473,-0.369873 0.318214,-0.474824 0.383352,-0.545172 0.538632,-0.581656 0.219639,-0.05161 0.39718,-0.03284 0.56881,0.06022 0.07287,0.03946 0.271556,0.04861 0.441521,0.02014 0.195832,-0.03275 0.401322,-0.01411 0.561025,0.05093 0.13861,0.0564 0.334836,0.0902 0.436067,0.07509 0.238042,-0.03552 0.38488,0.07025 0.451137,0.325027 0.04969,0.191116 0.03133,0.238348 -0.286169,0.735695 -0.387181,0.606504 -0.435016,0.724347 -0.399603,0.984426 0.02443,0.179312 0.01786,0.190435 -0.160073,0.272311 -0.229279,0.105499 -0.320915,0.22886 -0.221279,0.29791 0.136552,0.09463 0.01674,0.145086 -0.472546,0.199057 -0.265679,0.02929 -0.496369,0.0725 -0.512645,0.09599 -0.04632,0.06687 0.106273,0.148016 0.333751,0.177463 0.313514,0.04058 0.264219,0.102322 -0.15694,0.196547 -0.439449,0.09831 -0.923127,0.108545 -1.146961,0.02428 -0.08571,-0.03226 -0.314716,-0.03518 -0.508888,-0.0063 -0.194182,0.02876 -0.286451,0.06166 -0.205057,0.0731 0.0814,0.01143 0.191136,0.05068 0.243856,0.08723 0.05272,0.03654 0.234612,0.07902 0.404192,0.0944 0.48544,0.04404 1.160581,0.165162 1.168653,0.209674 0.03601,0.198775 -0.74019,0.436773 -1.47171,0.451224 l -0.491931,0.0097 0.218598,0.10564 c 0.123239,0.05955 0.336529,0.09279 0.488938,0.07617 0.325883,-0.03552 0.56466,0.01649 0.663531,0.144546 0.106526,0.137978 0.05758,0.165703 -0.245841,0.139161 -0.402382,-0.03508 -0.740444,0.0095 -1.145409,0.151305 -0.510008,0.178635 -0.75891,0.288037 -0.666349,0.292893 0.04355,0.0024 0.06636,0.02233 0.05068,0.04457 -0.01567,0.02224 -0.13462,0.03693 -0.264317,0.0327 -0.631339,-0.02063 -0.971653,-0.04832 -1.022063,-0.08325 -0.03051,-0.02112 -0.08938,-0.0236 -0.130888,-0.0055 -0.05392,0.0235 -0.02652,0.05111 0.0959,0.09669 0.09425,0.03508 0.233268,0.09517 0.308926,0.133521 0.205966,0.104404 0.656616,0.216272 0.928806,0.230553 0.227293,0.01197 0.237418,0.01795 0.177546,0.104822 -0.167503,0.242922 -0.588351,0.461555 -0.929288,0.482536 -0.192401,0.01182 -0.456265,0.04107 -0.58637,0.065 l -0.236558,0.04345 0.239156,0.140532 c 0.131531,0.0773 0.226004,0.159509 0.209932,0.182699 -0.04189,0.06041 -1.030777,0.31039 -1.392447,0.351949 -0.292767,0.03362 -1.59368,-0.148114 -2.608204,-0.364425 -0.438376,-0.09346 -0.472835,-0.09105 -0.390761,0.02739 0.211974,0.305929 1.161268,0.660427 1.886453,0.704462 0.254482,0.01547 0.455997,0.05407 0.447813,0.08581 -0.02627,0.10183 -0.572688,0.320302 -1.084607,0.433644 -0.737028,0.163188 -1.514969,0.03654 -2.959406,-0.481883 l -0.62523,-0.224393 0.439578,0.277697 c 0.321579,0.20315 0.628448,0.336408 1.143099,0.496413 0.756182,0.235093 0.812834,0.258799 0.739688,0.309582 -0.05914,0.04107 -0.772233,0.08689 -0.979914,0.06298 -0.08395,-0.0097 -0.314469,0.05001 -0.512274,0.132665 -0.471336,0.196902 -1.394174,0.389278 -2.114737,0.44086 -0.515724,0.03688 -0.601319,0.02438 -0.80661,-0.117858 -0.127474,-0.08834 -0.384581,-0.370935 -0.57784,-0.635125 -0.191497,-0.261786 -0.421032,-0.549945 -0.510073,-0.640355 -0.149886,-0.152176 -0.163024,-0.154609 -0.177052,-0.0327 -0.03678,0.319499 0.474696,1.057987 0.97093,1.401868 0.252385,0.174899 0.284703,0.21435 0.195889,0.239126 -0.203113,0.05665 -0.772189,-0.105007 -1.148057,-0.32616 -0.459337,-0.270262 -0.701322,-0.546111 -0.78952,-0.899986 -0.03645,-0.14622 -0.09832,-0.288061 -0.137492,-0.315212 -0.03918,-0.02715 -0.08334,-0.09958 -0.09813,-0.160949 -0.02226,-0.0923 -0.0265,-0.09202 -0.02455,0.0019 0.0013,0.06224 -0.03533,0.203544 -0.08138,0.314011 -0.05696,0.136634 -0.05325,0.359096 0.0116,0.69582 0.05243,0.272233 0.07362,0.479922 0.04709,0.461534 -0.156247,-0.108272 -0.236342,-0.339969 -0.190993,-0.552514 0.02785,-0.130519 0.0156,-0.460557 -0.02723,-0.733413 -0.103731,-0.660888 -0.284631,-1.041228 -0.572603,-1.203871 -0.112599,-0.06359 -0.265682,0.234271 -0.259729,0.505361 0.0031,0.141101 0.0077,0.331785 0.01019,0.423742 0.0025,0.09194 -0.02929,0.18194 -0.07065,0.199977 -0.0863,0.03761 -0.211511,-0.710519 -0.136926,-0.818154 0.0254,-0.03664 0.02358,-0.08231 -0.0041,-0.10146 -0.02762,-0.01917 -0.02674,-0.06871 0.002,-0.110156 0.08557,-0.123478 -0.05957,-0.170447 -0.523239,-0.169313 -1.067094,0.0024 -2.790716,-0.05536 -3.733735,-0.125521 -1.051367,-0.07823 -2.691943,-0.245219 -2.740597,-0.278929 -0.06934,-0.04802 0.09102,-0.157625 0.416733,-0.284743 z M 49.72921,44.523586 c -0.05735,0.324842 -0.03093,0.95876 0.03594,0.862248 0.0747,-0.107796 0.103907,-0.332729 0.07316,-0.563404 -0.01331,-0.09983 0.01732,-0.329556 0.06806,-0.510494 0.08449,-0.301281 0.0825,-0.315197 -0.02363,-0.165255 -0.06379,0.09002 -0.132829,0.25966 -0.153533,0.376905 z m -0.215616,1.298982 c 0.04585,-0.03927 0.108963,-0.129419 0.140188,-0.200264 0.03128,-0.07082 -0.0062,-0.03868 -0.08337,0.07147 -0.07715,0.110116 -0.102744,0.168062 -0.05688,0.128752 z m 0.995576,1.571409 c 0.0086,0.09253 0.07472,0.247092 0.146936,0.343478 0.154912,0.20675 0.74248,0.617559 0.931663,0.651381 0.08689,0.01552 0.01036,-0.04574 -0.222893,-0.178456 -0.428284,-0.243705 -0.606218,-0.461875 -0.660228,-0.809532 -0.02183,-0.140513 -0.08134,-0.334773 -0.132238,-0.431679 l -0.09254,-0.176188 0.0068,0.216374 c 0.0037,0.119016 0.01387,0.292091 0.02247,0.384618 z m 7.806522,-2.222343 c 0.379026,0.156736 0.636015,0.191258 0.34011,0.04569 -1.22294,-0.60162 -1.156893,-0.574542 -0.897524,-0.367947 0.131754,0.104949 0.382588,0.249962 0.557414,0.322257 z m 0.736638,-2.293061 c -0.0015,0.15167 0.0084,0.283346 0.0218,0.292611 0.03815,0.02642 0.1,-0.509939 0.06741,-0.584633 -0.05,-0.114686 -0.08659,0.0049 -0.08922,0.292022 z m 1.228224,-0.06102 c 0.03046,0.02112 0.733953,-0.358254 0.767629,-0.413952 0.01362,-0.02243 -0.154078,0.05283 -0.37254,0.167255 -0.442087,0.23156 -0.428847,0.223298 -0.395089,0.246697 z m -14.559557,4.112308 c -0.0046,0.14243 -0.05068,0.20893 -0.08703,0.125585 -0.0158,-0.0362 -0.0019,-0.103845 0.03091,-0.150269 0.0513,-0.07281 0.05915,-0.06933 0.05611,0.02467 z"
         id="path917" />
      <g
         aria-label="insig"
         id="text940"
         style="font-style:normal;font-weight:normal;font-size:10.5833px;line-height:1.25;font-family:sans-serif;fill:#000000;fill-opacity:1;stroke:none;stroke-width:0.264583">
        <path
           d="M 37.248181,63.454063 H 35.33615 V 52.271266 h 1.912031 z M 35.18112,49.305034 q 0,-0.465089 0.279054,-0.785483 0.289388,-0.320395 0.847494,-0.320395 0.558107,0 0.847495,0.320395 0.289389,0.320394 0.289389,0.785483 0,0.465088 -0.289389,0.775147 -0.289388,0.31006 -0.847495,0.31006 -0.558106,0 -0.847494,-0.31006 -0.279054,-0.310059 -0.279054,-0.775147 z"
           style="font-style:normal;font-variant:normal;font-weight:normal;font-stretch:normal;font-size:21.1667px;font-family:Roboto;-inkscape-font-specification:'Roboto, Normal';font-variant-ligatures:normal;font-variant-caps:normal;font-variant-numeric:normal;font-variant-east-asian:normal;stroke-width:0.264583"
           id="path947" />
        <path
           d="m 42.116108,52.271266 0.06201,1.405601 q 1.281578,-1.612307 3.348638,-1.612307 3.545009,0 3.576015,3.999762 v 7.389741 h -1.912031 v -7.400076 q -0.01033,-1.209231 -0.558106,-1.788008 -0.537436,-0.578777 -1.684655,-0.578777 -0.930177,0 -1.632978,0.496095 -0.7028,0.496094 -1.095542,1.302248 v 7.968518 H 40.30743 V 52.271266 Z"
           style="font-style:normal;font-variant:normal;font-weight:normal;font-stretch:normal;font-size:21.1667px;font-family:Roboto;-inkscape-font-specification:'Roboto, Normal';font-variant-ligatures:normal;font-variant-caps:normal;font-variant-numeric:normal;font-variant-east-asian:normal;stroke-width:0.264583"
           id="path949" />
        <path
           d="m 58.497562,60.487831 q 0,-0.775147 -0.589112,-1.198895 -0.578777,-0.434082 -2.036055,-0.744141 -1.446942,-0.31006 -2.304772,-0.744142 -0.847495,-0.434083 -1.260907,-1.033531 -0.403077,-0.599447 -0.403077,-1.426271 0,-1.374596 1.157554,-2.325444 1.167889,-0.950847 2.976567,-0.950847 1.901696,0 3.079921,0.981853 1.188559,0.981854 1.188559,2.511479 h -1.922366 q 0,-0.785483 -0.671795,-1.353925 -0.661459,-0.568441 -1.674319,-0.568441 -1.043865,0 -1.632978,0.454753 -0.589112,0.454753 -0.589112,1.18856 0,0.692465 0.547771,1.043865 0.547771,0.351401 1.974043,0.671795 1.436607,0.320394 2.325443,0.764813 0.888836,0.444418 1.312584,1.074871 0.434082,0.620118 0.434082,1.51929 0,1.498618 -1.198895,2.408125 -1.198895,0.899171 -3.110926,0.899171 -1.343589,0 -2.37712,-0.475423 -1.03353,-0.475424 -1.622642,-1.322919 -0.578777,-0.85783 -0.578777,-1.850019 h 1.912031 q 0.05168,0.961183 0.764812,1.529624 0.723472,0.558107 1.901696,0.558107 1.085207,0 1.736331,-0.434083 0.661459,-0.444418 0.661459,-1.178225 z"
           style="font-style:normal;font-variant:normal;font-weight:normal;font-stretch:normal;font-size:21.1667px;font-family:Roboto;-inkscape-font-specification:'Roboto, Normal';font-variant-ligatures:normal;font-variant-caps:normal;font-variant-numeric:normal;font-variant-east-asian:normal;stroke-width:0.264583"
           id="path951" />
        <path
           d="M 64.977799,63.454063 H 63.065768 V 52.271266 h 1.912031 z M 62.910738,49.305034 q 0,-0.465089 0.279054,-0.785483 0.289388,-0.320395 0.847494,-0.320395 0.558107,0 0.847495,0.320395 0.289389,0.320394 0.289389,0.785483 0,0.465088 -0.289389,0.775147 -0.289388,0.31006 -0.847495,0.31006 -0.558106,0 -0.847494,-0.31006 -0.279054,-0.310059 -0.279054,-0.775147 z"
           style="font-style:normal;font-variant:normal;font-weight:normal;font-stretch:normal;font-size:21.1667px;font-family:Roboto;-inkscape-font-specification:'Roboto, Normal';font-variant-ligatures:normal;font-variant-caps:normal;font-variant-numeric:normal;font-variant-east-asian:normal;stroke-width:0.264583"
           id="path953" />
        <path
           d="m 67.582296,57.769647 q 0,-2.614832 1.20923,-4.154792 1.209231,-1.550295 3.203944,-1.550295 2.04639,0 3.193609,1.446942 l 0.09302,-1.240236 h 1.746666 v 10.91408 q 0,2.170413 -1.291913,3.420985 -1.281578,1.250571 -3.451991,1.250571 -1.209231,0 -2.366784,-0.516765 -1.157554,-0.516765 -1.767337,-1.415936 l 0.992189,-1.147219 q 1.229901,1.51929 3.007573,1.51929 1.395266,0 2.170414,-0.785483 0.785483,-0.785483 0.785483,-2.211755 v -0.961183 q -1.147219,1.322918 -3.131597,1.322918 -1.963708,0 -3.183274,-1.581301 -1.20923,-1.581301 -1.20923,-4.309821 z m 1.922366,0.217041 q 0,1.891361 0.775148,2.976567 0.775148,1.074872 2.170414,1.074872 1.808678,0 2.656173,-1.643313 v -5.10564 q -0.878501,-1.601972 -2.635503,-1.601972 -1.395266,0 -2.180749,1.085207 -0.785483,1.085207 -0.785483,3.214279 z"
           style="font-style:normal;font-variant:normal;font-weight:normal;font-stretch:normal;font-size:21.1667px;font-family:Roboto;-inkscape-font-specification:'Roboto, Normal';font-variant-ligatures:normal;font-variant-caps:normal;font-variant-numeric:normal;font-variant-east-asian:normal;stroke-width:0.264583"
           id="path955" />
      </g>
    </g>
  </g>
</svg>
